<svg width="100" height="100" viewBox="0 0 100 100" fill="none" xmlns="http://www.w3.org/2000/svg">
<g clip-path="url(#clip0_99_40)">
<path d="M99.1281 82.1352C98.1504 79.8227 96.5252 77.8654 94.4744 76.4805C92.4271 75.0955 89.9326 74.2807 87.2822 74.2824C85.5168 74.2824 83.8178 74.6447 82.2775 75.2932C81.9076 75.451 81.5479 75.6312 81.1959 75.8186L77.032 64.2664L80.6133 58.525C80.6133 46.0904 85.052 10.4947 74.5539 0C64.0574 10.4947 65.3168 46.0922 65.3168 58.5215L69.3437 64.9842L64.8055 75.8533C62.9748 74.8529 60.8678 74.2811 58.6471 74.2826C56.8807 74.2811 55.1801 74.6434 53.6416 75.2951C51.3273 76.2711 49.3719 77.8971 47.9869 79.9479C46.5992 81.9969 45.7871 84.4912 45.7896 87.14C45.7879 88.9064 46.1492 90.607 46.802 92.1482C47.7797 94.4607 49.4039 96.4143 51.4547 97.8014C53.5027 99.1881 55.9947 100.001 58.6478 99.9994C60.4135 99.9994 62.1133 99.6422 63.6525 98.9869C65.9641 98.0094 67.9221 96.3816 69.3062 94.3326C70.6922 92.2836 71.507 89.7926 71.5035 87.1402C71.5063 85.3738 71.1457 83.6732 70.493 82.1355C70.1062 81.2203 69.6141 80.3656 69.0377 79.5752L72.9641 73.2791L76.8937 79.5787C76.802 79.702 76.7092 79.8248 76.6207 79.948C75.2363 81.9971 74.4227 84.4914 74.4252 87.1402C74.4234 88.9066 74.7832 90.6072 75.4357 92.1484C76.4162 94.4609 78.0422 96.4164 80.0912 97.8016C82.1367 99.1883 84.6313 100.001 87.2828 99.9996C89.0475 99.9996 90.7488 99.6406 92.2891 98.9871C94.6006 98.0078 96.557 96.3818 97.9428 94.3328C99.3279 92.2838 100.143 89.7928 100.141 87.1404C100.14 85.3734 99.7809 83.6729 99.1281 82.1352ZM64.1648 89.4697C63.7125 90.5395 62.9498 91.4615 61.992 92.1064C61.0316 92.7529 59.8996 93.1275 58.648 93.1275C57.8107 93.1275 57.0324 92.9592 56.3174 92.6594C55.2479 92.2086 54.3256 91.4424 53.6791 90.4838C53.0334 89.5268 52.6615 88.3932 52.6607 87.1398C52.659 86.3025 52.8271 85.5258 53.1279 84.81C53.5795 83.742 54.3447 82.8217 55.3008 82.1734C56.2621 81.5268 57.3939 81.1539 58.648 81.1523C59.4844 81.1539 60.2619 81.3205 60.977 81.6221C62.0467 82.0746 62.967 82.8373 63.6129 83.7941C64.2596 84.7562 64.632 85.8883 64.633 87.1398C64.634 87.9754 64.4674 88.7555 64.1648 89.4697ZM92.8008 89.4697C92.35 90.5395 91.5838 91.4615 90.6279 92.1064C89.6684 92.7529 88.5348 93.124 87.283 93.1275C86.4457 93.1275 85.6689 92.9592 84.9541 92.6594C83.8836 92.2068 82.9623 91.4424 82.3156 90.4838C81.6709 89.5268 81.2973 88.3914 81.2955 87.1398C81.2973 86.3025 81.4629 85.5258 81.7645 84.81C82.217 83.742 82.9805 82.8217 83.9373 82.1734C84.8967 81.5268 86.0307 81.1539 87.283 81.1523C88.1186 81.1539 88.8969 81.3205 89.6119 81.6221C90.6814 82.0746 91.6045 82.8373 92.2494 83.7941C92.8943 84.7547 93.2687 85.8883 93.2713 87.1398C93.2697 87.9754 93.1033 88.7555 92.8008 89.4697Z" fill="white"/>
<path d="M22.5564 42.4377L36.9498 42.4412C38.6201 42.4412 39.973 41.0858 39.9748 39.418C39.973 37.7504 38.6191 36.3947 36.9525 36.3947L22.5564 36.3983C21.9869 36.3947 21.5242 35.9336 21.5216 35.3615L21.5244 32.4457C21.5244 31.8735 21.9871 31.4125 22.5591 31.4125L36.9498 31.4158C38.6201 31.4158 39.973 30.0602 39.9705 28.3926C39.973 26.718 38.6201 25.3727 36.9498 25.3727H22.5556C21.9871 25.3694 21.5234 24.9047 21.5207 24.336L21.5234 21.4237C21.5234 20.8483 21.9871 20.3836 22.5556 20.3869L36.9517 20.3836C38.6218 20.3836 39.9707 19.0348 39.9707 17.3602C39.9732 15.6961 38.6203 14.3406 36.95 14.3406H22.5566C21.9871 14.344 21.5226 13.8795 21.5234 13.3074V10.3955C21.5234 9.82346 21.9871 9.36232 22.5574 9.36232L36.0439 9.35881C38.2144 9.35881 39.973 7.59748 39.973 5.4342C39.973 3.26369 38.2127 1.50256 36.0449 1.50256L13.8533 0.896114C11.2617 0.833614 8.75505 1.81838 6.90173 3.62463C5.04606 5.43772 4.00251 7.91662 4.00251 10.51L3.99997 90.3797C3.99997 92.9696 5.0445 95.452 6.90114 97.2617C8.75505 99.0748 11.2617 100.056 13.8525 99.9973L36.0447 99.3836C38.2134 99.3836 39.9728 97.6293 39.9705 95.4588C39.9705 93.2885 38.2127 91.5272 36.0439 91.5272H22.5574C21.9871 91.5272 21.5224 91.066 21.5234 90.4942L21.5207 87.5817C21.5207 87.0098 21.9836 86.5451 22.5564 86.5451H36.9498C38.6201 86.5451 39.973 85.1895 39.9748 83.5254C39.973 81.8576 38.6209 80.5022 36.9498 80.5022H22.5556C21.9836 80.5022 21.5207 80.0373 21.5224 79.469L21.5207 76.5567C21.5224 75.9846 21.9879 75.5166 22.5564 75.5199H36.9498C38.6201 75.5199 39.973 74.1643 39.9705 72.5002C39.973 70.8326 38.6201 69.4736 36.9498 69.4736H22.5556C21.9861 69.4736 21.5207 69.0125 21.5207 68.4403L21.5234 65.5281C21.5234 64.9559 21.9871 64.4949 22.5556 64.4949H36.9517C38.6201 64.4949 39.9732 63.1428 39.9732 61.4717C39.9707 59.8004 38.6203 58.4518 36.9517 58.4483H22.5566C21.9871 58.4483 21.5234 57.9836 21.5234 57.4151V54.4992C21.5234 53.9274 21.9871 53.4662 22.5591 53.4662H36.949C38.6209 53.4627 39.9713 52.1141 39.974 50.443C39.974 48.7752 38.6201 47.4231 36.95 47.4231H22.5576C21.9898 47.4231 21.5252 46.9586 21.5244 46.3863V43.4705C21.5215 42.9024 21.9869 42.4377 22.5564 42.4377Z" fill="white"/>
</g>
<defs>
<clipPath id="clip0_99_40">
<rect width="100" height="100" fill="white"/>
</clipPath>
</defs>
</svg>
